<svg width="256" height="256" xmlns="http://www.w3.org/2000/svg">
    <ellipse fill="#5680A6" stroke="null" cx="128" cy="128" id="svg_3" rx="128" ry="128" />
    <path stroke="null" id="svg_1"
        d="m39.09445,145.75956c1.97006,-7.36968 4.57847,-14.27377 7.79989,-21.01427c0.83283,-1.7449 0.79901,-3.67016 0.68909,-5.54928q-1.01885,-17.94392 -0.67641,-36.21083c0.10992,-5.79256 0.87934,-38.16125 9.7488,-38.76945q2.92126,-0.20133 5.28448,0.93956q4.26986,2.05948 9.26686,6.2917c9.05548,7.66748 17.22739,16.68139 26.10531,24.3279c1.34437,1.15348 4.22335,3.38493 5.8087,3.28846q0.62146,-0.03775 1.25559,-0.20972q9.32182,-2.4999 16.10708,-2.92354c7.93094,-0.49495 16.53829,-0.36073 24.50306,1.34223q3.771,0.80534 7.23339,1.70715c2.16875,0.57045 5.19992,-2.03012 6.87827,-3.45205q4.24449,-3.59885 7.81257,-7.11381c6.99664,-6.89151 13.78614,-13.79141 21.5818,-19.72238c2.03769,-1.54776 4.52774,-3.09132 6.89941,-3.9428c1.55152,-0.55367 4.48546,-0.88503 5.91016,0.14681c1.87282,1.35062 3.12418,3.91763 3.86823,6.10714q1.36974,4.02249 2.01656,7.95271q1.83477,11.19922 2.00387,25.45622q0.19024,16.03544 -0.17333,23.27509q-0.37625,7.60037 -0.58341,13.85432c-0.03805,1.18284 0.28747,2.31535 0.79479,3.37235q4.9209,10.33516 7.68574,20.81713c0.55804,2.11821 0.92161,4.35386 0.65528,6.54756c-0.68064,5.6877 -3.40743,11.01467 -6.58657,15.72505q-6.5612,9.73116 -17.27812,18.75346q-15.53213,13.06996 -34.01089,20.01599q-24.89199,9.35785 -50.52381,3.82116q-9.66848,-2.08884 -19.56524,-6.59789q-18.4703,-8.41829 -33.15269,-22.57881q-7.22071,-6.96282 -12.25153,-14.77711c-2.92972,-4.55519 -5.4409,-9.91991 -5.79179,-15.29302q-0.16065,-2.43279 0.68487,-5.58703l-0.00001,-0.00001l0,0.00001zm36.22614,6.78245c3.78368,7.66748 11.15236,11.43411 19.42996,12.0549q3.10727,0.23489 6.73031,-0.85148q3.7245,-1.11154 5.21683,-4.35805c2.35476,-5.10467 -2.02924,-11.42992 -5.81292,-14.36185c-5.25911,-4.07282 -12.61087,-6.67759 -19.28622,-6.31267q-3.79637,0.20972 -6.27373,2.58799c-3.10305,2.97807 -1.76713,7.67168 -0.00423,11.24117l0.00001,0l-0.00001,-0.00001zm92.11052,-13.47682c-6.95014,1.31706 -13.65086,4.57197 -17.81503,10.11286c-1.66567,2.22307 -2.81557,5.05014 -2.54078,7.76396c0.46926,4.58455 3.85133,6.56434 8.1846,7.33612c6.7134,1.19962 14.64011,-1.22479 19.51451,-5.82611c4.03734,-3.80857 9.81222,-14.15213 2.7902,-18.37595c-2.80711,-1.68618 -6.86559,-1.63165 -10.13351,-1.01087l0.00001,-0.00001zm-51.98656,41.86497c2.84939,3.24232 6.11308,5.90161 10.02782,7.08026c4.21067,1.26253 9.68116,-3.05776 12.43754,-6.00648c0.86242,-0.92278 1.82209,-1.8959 2.20679,-3.12907c0.3382,-1.08636 -0.97657,-2.17273 -1.83054,-2.57121q-1.77981,-0.82631 -3.68645,-1.07378q-7.18266,-0.93956 -14.5767,-0.02517q-1.88973,0.23489 -3.74141,1.01926c-1.00194,0.42364 -2.50273,1.60229 -1.99964,2.84804q0.40162,0.98989 1.16258,1.85815l0.00001,-0.00001l0,0.00001z"
        fill="#EEE" />
    <path fill="none" fill-opacity="0" stroke="#5680A6" opacity="undefined" transform="rotate(-5.44683 184.088 183.693)"
        d="m184.08806,183.69272" id="svg_12" />
    <path transform="rotate(82 161.756 176.324)" fill="none" fill-opacity="0" opacity="undefined" d="m161,193l0,-26"
        id="svg_14" stroke="#5680A6" stroke-width="2" />
    <path transform="rotate(90 162 181.194)" fill="none" fill-opacity="0" opacity="undefined" d="m162,198l0,-26"
        id="svg_15" stroke="#5680A6" stroke-width="2" />
    <path transform="rotate(98 161.756 185.836)" fill="none" fill-opacity="0" opacity="undefined" d="m163,203l0,-26"
        id="svg_16" stroke="#5680A6" stroke-width="2" />
    <path transform="rotate(98 96.4878 176.096)" fill="none" fill-opacity="0" opacity="undefined" d="m96,189l0,-26"
        id="svg_17" stroke="#5680A6" stroke-width="2" />
    <path transform="rotate(90 96 181.072)" fill="none" fill-opacity="0" opacity="undefined" d="m96,194l0,-26"
        id="svg_7" stroke="#5680A6" stroke-width="2" />
    <path transform="rotate(82 96.4878 185.657)" fill="none" fill-opacity="0" opacity="undefined" d="m97,198l0,-26"
        id="svg_18" stroke="#5680A6" stroke-width="2" />
</svg>