<svg xmlns="http://www.w3.org/2000/svg" viewBox="0.00 0.00 512.00 512.00" width="512" height="512"
    class="MuiSvgIcon-root MuiSvgIcon-fontSizeMedium css-q7mezt" focusable="false" aria-hidden="true"
    style="height: 36px; width: 36px; margin-top: -3px; margin-right: 5px; margin-left: -3px;">
    <ellipse fill="#ffb682" cx="256.96154" cy="256.00001" id="svg_2" rx="250" ry="250" stroke="null" />
    <path fill="#dbd7ca"
        d="m81.8606,290.22568c3.85781,-14.54542 8.96567,-28.17191 15.27393,-41.47554c1.63087,-3.44388 1.56465,-7.24373 1.3494,-10.95252q-1.99513,-35.41564 -1.32457,-71.46874c0.21524,-11.43268 1.72194,-75.31826 19.09034,-76.51865q5.72048,-0.39737 10.34819,1.8544q8.36134,4.06477 18.14659,12.41783c17.73266,15.13319 33.7351,32.9238 51.12006,48.0156c2.63258,2.2766 8.27027,6.68079 11.37473,6.49038q1.21695,-0.07451 2.45873,-0.41393q18.25421,-4.93402 31.54128,-5.77015c15.53056,-0.97687 32.38569,-0.71196 47.98249,2.64914q7.38447,1.58948 14.1646,3.36937c4.2469,1.12588 10.18262,-4.00682 13.4692,-6.81325q8.31167,-7.103 15.29876,-14.04042c13.701,-13.60166 26.99636,-27.21988 42.26201,-38.92575c3.99026,-3.05479 8.86633,-6.10129 13.5106,-7.78184c3.03823,-1.09277 8.78354,-1.74677 11.57342,0.28975c3.6674,2.66569 6.11785,7.73217 7.57487,12.05357q2.68225,7.93913 3.94887,15.69613q3.59289,22.10373 3.92403,50.24253q0.37253,31.6489 -0.33942,45.93768q-0.73679,15.00074 -1.14244,27.34406c-0.07451,2.33455 0.56294,4.56976 1.55637,6.65596q9.63623,20.39835 15.05041,41.08645c1.09277,4.18067 1.80472,8.59314 1.28318,12.92282c-1.33285,11.22572 -6.67251,21.73948 -12.89798,31.03629q-12.84831,19.20624 -33.83444,37.0134q-30.4154,25.79597 -66.60095,39.50525q-48.74411,18.46945 -98.93697,7.54176q-18.93305,-4.12272 -38.31314,-13.02216q-36.16899,-16.61505 -64.9204,-44.56344q-14.13977,-13.7424 -23.99124,-29.16534c-5.73704,-8.99051 -10.6545,-19.57877 -11.34162,-30.1836q-0.31458,-4.80156 1.34113,-11.02703l-0.00002,-0.00001zm70.93891,13.38642c7.4093,15.13319 21.83882,22.56733 38.04822,23.79256q6.08474,0.4636 13.17945,-1.68055q7.2934,-2.19382 10.21573,-8.60142c4.61115,-10.075 -3.9737,-22.55905 -11.38301,-28.34576c-10.29852,-8.03847 -24.69492,-13.17945 -37.76675,-12.45922q-7.43414,0.41393 -12.28537,5.10787c-6.07646,5.87777 -3.46043,15.14147 -0.00828,22.18652l0.00001,0zm180.37308,-26.59899c-13.60994,2.59947 -26.73144,9.02362 -34.88582,19.95959c-3.26175,4.38763 -5.51352,9.96738 -4.97541,15.3236c0.91892,9.04846 7.54176,12.95593 16.02728,14.47919c13.14634,2.36767 28.66862,-2.41734 38.21379,-11.49891c7.90602,-7.51692 19.21452,-27.93183 5.46384,-36.26833c-5.49696,-3.32798 -13.44437,-3.22036 -19.84369,-1.99513l0.00001,-0.00001zm-101.80135,82.62822c5.57974,6.39932 11.97079,11.64792 19.63672,13.9742c8.24544,2.49184 18.95788,-6.03506 24.3555,-11.85489c1.68882,-1.82128 3.56806,-3.74191 4.3214,-6.1758c0.66228,-2.14414 -1.91235,-4.28829 -3.58461,-5.07475q-3.48527,-1.63087 -7.2189,-2.11931q-14.06526,-1.8544 -28.54445,-0.04967q-3.70051,0.4636 -7.32652,2.01169c-1.96202,0.83613 -4.9009,3.16241 -3.91575,5.62114q0.78646,1.95374 2.2766,3.6674l0.00001,-0.00001z"
        id="svg_1" stroke="null" />
    <g id="svg_15">
        <line transform="rotate(11.0937 315.586 361.491)" stroke-width="3" id="svg_3" y2="356.49056" x2="341.08634"
            y1="366.49056" x1="290.08634" stroke="#ffb682" fill="none" />
        <line transform="rotate(-6 313.466 347.062)" stroke-width="3" id="svg_5" y2="342.06186" x2="338.96564"
            y1="352.06186" x1="287.96564" stroke="#ffb682" fill="none" />
        <path transform="rotate(25.564 313.578 374.757)" id="svg_6" d="m288.07824,379.75653l51,-10" opacity="undefined"
            stroke-width="3" stroke="#ffb682" fill="none" />
    </g>
    <g transform="rotate(180 194.474 356.085)" id="svg_19">
        <line transform="rotate(11.0937 195.482 352.728)" stroke-width="3" id="svg_16" y2="347.72768" x2="220.98325"
            y1="357.72768" x1="169.98325" stroke="#ffb682" fill="none" />
        <line transform="rotate(-6 193.362 338.299)" stroke-width="3" id="svg_17" y2="333.29897" x2="218.86255"
            y1="343.29897" x1="167.86255" stroke="#ffb682" fill="none" />
        <path transform="rotate(25.564 193.474 365.994)" id="svg_18" d="m167.97515,370.99365l51,-10" opacity="undefined"
            stroke-width="3" stroke="#ffb682" fill="none" />
    </g>
</svg>